<?xml version="1.0" encoding="utf-8"?>
<!-- Generator: Adobe Illustrator 25.0.1, SVG Export Plug-In . SVG Version: 6.00 Build 0)  -->
<svg version="1.1" id="icons" xmlns="http://www.w3.org/2000/svg" xmlns:xlink="http://www.w3.org/1999/xlink" x="0px" y="0px"
	 viewBox="0 0 25 200" style="enable-background:new 0 0 25 200;" xml:space="preserve">
<style type="text/css">
	.st0{fill:#C3372D;}
	.st1{fill-rule:evenodd;clip-rule:evenodd;fill:#181616;stroke:#231F20;stroke-width:0.5;stroke-miterlimit:10;}
	.st2{fill-rule:evenodd;clip-rule:evenodd;fill:none;stroke:#231F20;stroke-width:0.5;stroke-miterlimit:10;}
</style>
<path class="st0" d="M15.5,142.6c0.1,0,0.3,0,0.4,0c1.3,0,2.3,1,2.3,2.3v0.2c1.3-0.1,2.3,0.9,2.4,2.1c0,0.1,0,0.1,0,0.2v4.7
	c0,0.3,0,0.5-0.1,0.8l-0.7,3.8c-0.2,1-1.1,1.7-2.1,1.7h-6.5c-0.8,0-1.5-0.4-1.9-1l-3.6-4.9c-0.3-0.4-0.5-1-0.5-1.5
	c0-1.3,1.1-2.4,2.4-2.4c0.4,0,0.8,0.1,1.2,0.3v-4.1c0-1.2,1-2.2,2.2-2.3c0.1,0,0.3,0,0.4,0c0.6-1.1,1.9-1.6,3-1
	C14.9,141.7,15.2,142.1,15.5,142.6L15.5,142.6z M12.4,143.6v6.2h-0.3v-5c0-0.6-0.5-1.1-1.1-1.1s-1.1,0.5-1.1,1.1v7.4l-1.5-1.9
	c-0.4-0.5-1.2-0.6-1.7-0.2c-0.3,0.2-0.5,0.6-0.5,1c0,0.3,0.1,0.5,0.2,0.7l3.6,4.9c0.2,0.3,0.6,0.5,1,0.5h6.5c0.4,0,0.8-0.3,0.9-0.7
	l0.7-3.8c0-0.2,0-0.4,0-0.6v-4.7c0-0.6-0.5-1.1-1.1-1.1s-1.1,0.5-1.1,1.1v2.6H17v-5c0-0.6-0.5-1.1-1.1-1.1s-1.1,0.5-1.1,1.1v5h-0.3
	v-6.2c0-0.6-0.5-1.1-1.1-1.1C12.9,142.5,12.4,143,12.4,143.6L12.4,143.6z"/>
<path d="M15.5,122.6c0.1,0,0.3,0,0.4,0c1.3,0,2.3,1,2.3,2.3v0.2c1.3-0.1,2.3,0.9,2.4,2.1c0,0.1,0,0.1,0,0.2v4.7c0,0.3,0,0.5-0.1,0.8
	l-0.7,3.8c-0.2,1-1.1,1.7-2.1,1.7h-6.5c-0.8,0-1.5-0.4-1.9-1l-3.6-4.9c-0.3-0.4-0.5-1-0.5-1.5c0-1.3,1.1-2.4,2.4-2.4
	c0.4,0,0.8,0.1,1.2,0.3v-4.1c0-1.2,1-2.2,2.2-2.3c0.1,0,0.3,0,0.4,0c0.6-1.1,1.9-1.6,3-1C14.9,121.7,15.2,122.1,15.5,122.6
	L15.5,122.6z M12.4,123.6v6.2h-0.3v-5c0-0.6-0.5-1.1-1.1-1.1s-1.1,0.5-1.1,1.1v7.4l-1.5-1.9c-0.4-0.5-1.2-0.6-1.7-0.2
	c-0.3,0.2-0.5,0.6-0.5,1c0,0.3,0.1,0.5,0.2,0.7l3.6,4.9c0.2,0.3,0.6,0.5,1,0.5h6.5c0.4,0,0.8-0.3,0.9-0.7l0.7-3.8c0-0.2,0-0.4,0-0.6
	v-4.7c0-0.6-0.5-1.1-1.1-1.1s-1.1,0.5-1.1,1.1v2.6H17v-5c0-0.6-0.5-1.1-1.1-1.1s-1.1,0.5-1.1,1.1v5h-0.3v-6.2c0-0.6-0.5-1.1-1.1-1.1
	C12.9,122.5,12.4,123,12.4,123.6L12.4,123.6z"/>
<path class="st1" d="M12.6,180.3c-5,0-9,4.1-9,9.2c0,4.1,2.6,7.5,6.2,8.8c0.5,0.1,0.6-0.2,0.6-0.4s0-0.8,0-1.6c-2.5,0.6-3-1.2-3-1.2
	c-0.4-1.1-1-1.3-1-1.3c-0.8-0.6,0.1-0.6,0.1-0.6c0.9,0.1,1.4,1,1.4,1c0.8,1.4,2.1,1,2.6,0.8c0.1-0.6,0.3-1,0.6-1.2
	c-2-0.2-4.1-1-4.1-4.6c0-1,0.4-1.8,0.9-2.5c-0.1-0.2-0.4-1.2,0.1-2.4c0,0,0.8-0.2,2.5,0.9c0.7-0.2,1.5-0.3,2.3-0.3s1.5,0.1,2.3,0.3
	c1.7-1.2,2.5-0.9,2.5-0.9c0.5,1.3,0.2,2.2,0.1,2.4c0.6,0.6,0.9,1.5,0.9,2.5c0,3.5-2.1,4.3-4.1,4.6c0.3,0.3,0.6,0.8,0.6,1.7
	c0,1.2,0,2.2,0,2.5c0,0.2,0.2,0.5,0.6,0.4c3.6-1.2,6.1-4.7,6.1-8.8C21.6,184.4,17.6,180.3,12.6,180.3z"/>
<path class="st2" d="M12.6,160.3c-5,0-9,4.1-9,9.2c0,4.1,2.6,7.5,6.2,8.8c0.5,0.1,0.6-0.2,0.6-0.4s0-0.8,0-1.6c-2.5,0.6-3-1.2-3-1.2
	c-0.4-1.1-1-1.3-1-1.3c-0.8-0.6,0.1-0.6,0.1-0.6c0.9,0.1,1.4,1,1.4,1c0.8,1.4,2.1,1,2.6,0.8c0.1-0.6,0.3-1,0.6-1.2
	c-2-0.2-4.1-1-4.1-4.6c0-1,0.4-1.8,0.9-2.5c-0.1-0.2-0.4-1.2,0.1-2.4c0,0,0.8-0.2,2.5,0.9c0.7-0.2,1.5-0.3,2.3-0.3s1.5,0.1,2.3,0.3
	c1.7-1.2,2.5-0.9,2.5-0.9c0.5,1.3,0.2,2.2,0.1,2.4c0.6,0.6,0.9,1.5,0.9,2.5c0,3.5-2.1,4.3-4.1,4.6c0.3,0.3,0.6,0.8,0.6,1.7
	c0,1.2,0,2.2,0,2.5c0,0.2,0.2,0.5,0.6,0.4c3.6-1.2,6.1-4.7,6.1-8.8C21.6,164.4,17.6,160.3,12.6,160.3z"/>
</svg>
