<?xml version="1.0" encoding="utf-8"?>
<!-- Generator: Adobe Illustrator 25.0.1, SVG Export Plug-In . SVG Version: 6.00 Build 0)  -->
<svg version="1.1" id="icons" xmlns="http://www.w3.org/2000/svg" xmlns:xlink="http://www.w3.org/1999/xlink" x="0px" y="0px"
	 viewBox="0 0 25 200" style="enable-background:new 0 0 25 200;" xml:space="preserve">
<style type="text/css">
	.st0{fill:#C3372D;}
	.st1{fill:#20BEFF;stroke:#0094D5;stroke-width:0.5;stroke-miterlimit:10;}
	.st2{fill:none;stroke:#000000;stroke-width:0.5;stroke-miterlimit:10;}
</style>
<path class="st0" d="M15.7,138.9c0.1,0,0.3,0,0.4,0c1.3,0,2.3,1,2.3,2.3v0.2c1.3-0.1,2.3,0.9,2.4,2.1c0,0.1,0,0.1,0,0.2v4.7
	c0,0.3,0,0.5-0.1,0.8L20,153c-0.2,1-1.1,1.7-2.1,1.7h-6.5c-0.8,0-1.5-0.4-1.9-1l-3.6-4.9c-0.3-0.4-0.5-1-0.5-1.5
	c0-1.3,1.1-2.4,2.4-2.4c0.4,0,0.8,0.1,1.2,0.3v-4.1c0-1.2,1-2.2,2.2-2.3c0.1,0,0.3,0,0.4,0c0.6-1.1,1.9-1.6,3-1
	C15.1,138.1,15.5,138.4,15.7,138.9L15.7,138.9z M12.6,139.9v6.2h-0.3v-5c0-0.6-0.5-1.1-1.1-1.1s-1.1,0.5-1.1,1.1v7.4l-1.5-1.9
	c-0.4-0.5-1.2-0.6-1.7-0.2c-0.3,0.2-0.5,0.6-0.5,1c0,0.3,0.1,0.5,0.2,0.7l3.6,4.9c0.2,0.3,0.6,0.5,1,0.5H18c0.4,0,0.8-0.3,0.9-0.7
	l0.7-3.8c0-0.2,0-0.4,0-0.6v-4.7c0-0.6-0.5-1.1-1.1-1.1s-1.1,0.5-1.1,1.1v2.6h-0.3v-5c0-0.6-0.5-1.1-1.1-1.1s-1.1,0.5-1.1,1.1v5
	h-0.3v-6.2c0-0.6-0.5-1.1-1.1-1.1C13.1,138.8,12.7,139.3,12.6,139.9L12.6,139.9z"/>
<path d="M15.5,122.6c0.1,0,0.3,0,0.4,0c1.3,0,2.3,1,2.3,2.3v0.2c1.3-0.1,2.3,0.9,2.4,2.1c0,0.1,0,0.1,0,0.2v4.7c0,0.3,0,0.5-0.1,0.8
	l-0.7,3.8c-0.2,1-1.1,1.7-2.1,1.7h-6.5c-0.8,0-1.5-0.4-1.9-1l-3.6-4.9c-0.3-0.4-0.5-1-0.5-1.5c0-1.3,1.1-2.4,2.4-2.4
	c0.4,0,0.8,0.1,1.2,0.3v-4.1c0-1.2,1-2.2,2.2-2.3c0.1,0,0.3,0,0.4,0c0.6-1.1,1.9-1.6,3-1C14.9,121.7,15.2,122.1,15.5,122.6
	L15.5,122.6z M12.4,123.6v6.2h-0.3v-5c0-0.6-0.5-1.1-1.1-1.1s-1.1,0.5-1.1,1.1v7.4l-1.5-1.9c-0.4-0.5-1.2-0.6-1.7-0.2
	c-0.3,0.2-0.5,0.6-0.5,1c0,0.3,0.1,0.5,0.2,0.7l3.6,4.9c0.2,0.3,0.6,0.5,1,0.5h6.5c0.4,0,0.8-0.3,0.9-0.7l0.7-3.8c0-0.2,0-0.4,0-0.6
	v-4.7c0-0.6-0.5-1.1-1.1-1.1s-1.1,0.5-1.1,1.1v2.6H17v-5c0-0.6-0.5-1.1-1.1-1.1s-1.1,0.5-1.1,1.1v5h-0.3v-6.2c0-0.6-0.5-1.1-1.1-1.1
	C12.9,122.5,12.4,123,12.4,123.6L12.4,123.6z"/>
<g id="comp_x5F_189-kaggle_1_">
	<g>
		<path class="st1" d="M17.7,198l-5.1-6.4l4.8-4.8c0.1-0.1,0.1-0.4-0.2-0.4h-2.4c-0.1,0-0.2,0.1-0.4,0.2l-4.4,4.8v-10.8
			c0-0.2-0.1-0.3-0.3-0.3H7.9c-0.2,0-0.3,0.1-0.3,0.3v17.5c0,0.2,0.1,0.3,0.3,0.3h1.8c0.2,0,0.3-0.1,0.3-0.3v-3.8l1.1-1l3.8,4.9
			c0.1,0.1,0.2,0.2,0.4,0.2h2.3c0.1,0,0.2,0,0.2-0.1L17.7,198z"/>
	</g>
</g>
<g id="comp_x5F_189-kaggle_2_">
	<g>
		<path class="st2" d="M17.7,178.1l-5.1-6.4l4.8-4.8c0.1-0.1,0.1-0.4-0.2-0.4h-2.4c-0.1,0-0.2,0.1-0.4,0.2l-4.6,4.7v-10.8
			c0-0.2-0.1-0.3-0.3-0.3H7.9c-0.2,0-0.3,0.1-0.3,0.3v17.5c0,0.2,0.1,0.3,0.3,0.3h1.8c0.2,0,0.3-0.1,0.3-0.3v-3.8l1.1-1l3.8,4.9
			c0.1,0.1,0.2,0.2,0.4,0.2h2.3c0.1,0,0.2,0,0.2-0.1L17.7,178.1z"/>
	</g>
</g>
</svg>
